<svg xmlns="http://www.w3.org/2000/svg" version="1.1" xmlns:xlink="http://www.w3.org/1999/xlink" width="512" height="512" x="0" y="0" viewBox="0 0 335.314 335.314" style="enable-background:new 0 0 512 512" xml:space="preserve" class=""><g><path d="M284.536 70.198c-31.343-17.338-72.852-26.887-116.88-26.887S82.119 52.86 50.777 70.198C18.033 88.312 0 112.891 0 139.409l.002.033-.002.042.569 56.419c-.172 16.934 7.273 33.509 21.536 47.938 29.364 29.707 85.137 48.162 145.553 48.162 44.028 0 85.536-9.549 116.879-26.887 32.744-18.114 50.777-42.694 50.777-69.211v-56.497c0-26.517-18.033-51.096-50.778-69.21zM58.039 83.323c29.156-16.129 68.086-25.012 109.617-25.012 41.531 0 80.461 8.883 109.618 25.013 27.755 15.353 43.04 35.271 43.04 56.085v29.174c-.807 11.729-1.542 21.048-15.515 31.44-15.324 9.083-25.153 6.272-37.574 2.724-10.619-3.036-22.647-6.472-37.975-1.311-15.917 3.988-23.686 13.391-30.548 21.692-7.689 9.304-13.771 16.663-31.057 17.472-17.287-.811-23.369-8.171-31.058-17.475-6.861-8.302-14.632-17.705-30.549-21.695-15.325-5.161-27.351-1.726-37.97 1.309-12.422 3.55-22.248 6.355-37.568-2.724-12.491-9.294-14.313-17.724-15.162-26.956l-.339-33.674c.013-20.804 15.296-40.715 43.04-56.062zm219.236 168.668c-29.156 16.13-68.086 25.013-109.617 25.013-56.552 0-108.237-16.748-134.885-43.707-7.768-7.858-12.916-16.101-15.424-24.617 1.565 1.773 4.932 3.898 5.133 4.019 21.076 12.645 36.289 8.299 49.708 4.464 9.808-2.804 18.277-5.223 29.3-1.436.216.074.436.139.658.193 11.308 2.762 16.67 9.249 22.878 16.762 8.484 10.267 18.101 21.903 42.305 22.92a6.608 6.608 0 0 0 .628 0c24.202-1.014 33.819-12.65 42.305-22.916 6.209-7.512 11.57-13.999 22.877-16.76.223-.055.442-.119.659-.193 11.021-3.79 19.494-1.366 29.304 1.437 13.423 3.837 28.636 8.183 49.715-4.463.201-.121 3.416-2.106 5.695-4.523-4.779 16.272-19.001 31.505-41.239 43.807z" fill="#ffffff" opacity="1" data-original="#000000" class=""></path><path d="M242.172 138.206c0-10.611-8.62-20.007-24.271-26.454-13.543-5.579-31.387-8.651-50.244-8.651s-36.7 3.072-50.242 8.651c-15.651 6.447-24.271 15.843-24.271 26.454 0 10.612 8.62 20.007 24.271 26.455 13.542 5.578 31.385 8.65 50.242 8.65 18.858 0 36.702-3.072 50.244-8.65 15.651-6.449 24.271-15.843 24.271-26.455zM167.656 118.1c35.778 0 59.516 12.102 59.516 20.105 0 2.191-2.163 5.543-7.777 8.985-13.573-5.919-32.278-9.3-51.738-9.3-19.459 0-38.163 3.381-51.738 9.299-5.612-3.441-7.775-6.793-7.775-8.984-.001-8.003 23.735-20.105 59.512-20.105zm-28.25 37.506c8.635-1.762 18.289-2.715 28.25-2.715 9.961 0 19.615.953 28.25 2.716-8.624 1.765-18.236 2.704-28.25 2.704s-19.626-.939-28.25-2.705zM93.162 104.497a7.474 7.474 0 0 0 3.799-1.038l21.076-12.411a7.5 7.5 0 0 0-7.612-12.926L89.35 90.533a7.5 7.5 0 0 0 3.812 13.964zM176.768 185.015l-23.119 7.983a7.5 7.5 0 0 0 4.896 14.178l23.119-7.983a7.5 7.5 0 0 0-4.896-14.178zM150.556 82.928l23.083 8.092a7.509 7.509 0 0 0 2.482.424 7.502 7.502 0 0 0 2.481-14.581l-23.083-8.092a7.5 7.5 0 0 0-9.559 4.597 7.5 7.5 0 0 0 4.596 9.56zM123.44 177.651l-23.083-8.092a7.5 7.5 0 0 0-4.963 14.156l23.083 8.092a7.507 7.507 0 0 0 2.481.424 7.504 7.504 0 0 0 7.078-5.021 7.5 7.5 0 0 0-4.596-9.559zM263.82 150.81a7.5 7.5 0 0 0 4.022 14.451l23.564-6.558a7.5 7.5 0 0 0-4.021-14.451l-23.565 6.558zM42.652 170.114a7.47 7.47 0 0 0 3.435-.838l21.733-11.222a7.5 7.5 0 0 0 3.224-10.104c-1.901-3.683-6.429-5.125-10.104-3.224l-21.733 11.222a7.5 7.5 0 0 0-3.224 10.104 7.497 7.497 0 0 0 6.669 4.062zM46.199 123.239c.098 0 .195-.002.294-.006l24.442-.941a7.499 7.499 0 0 0 7.205-7.783c-.158-4.139-3.621-7.346-7.783-7.205l-24.442.941a7.499 7.499 0 0 0-7.205 7.783 7.5 7.5 0 0 0 7.489 7.211zM256.06 119.909l23.867 5.355a7.52 7.52 0 0 0 1.648.184 7.501 7.501 0 0 0 1.635-14.82l-23.867-5.355c-4.037-.901-8.052 1.635-8.96 5.677a7.5 7.5 0 0 0 5.677 8.959zM217.933 173.188c-4.113-.16-7.613 3.091-7.76 7.23a7.5 7.5 0 0 0 7.23 7.76l24.445.863a7.499 7.499 0 0 0 7.76-7.23 7.5 7.5 0 0 0-7.23-7.76l-24.445-.863zM213.258 99.925c.669 0 1.35-.091 2.026-.279l23.556-6.595a7.502 7.502 0 0 0 5.2-9.245 7.503 7.503 0 0 0-9.244-5.2l-23.557 6.595a7.502 7.502 0 0 0 2.019 14.724z" fill="#ffffff" opacity="1" data-original="#000000" class=""></path></g></svg>